<svg width="154" height="154" viewBox="0 0 154 154" fill="none" xmlns="http://www.w3.org/2000/svg">
<path d="M138.086 77.1803L146.293 77.7688L147.992 79.7314L147.557 85.8018L145.37 85.645L145.759 80.2189L138.264 79.6815L137.863 85.2772L135.676 85.1203L136.123 78.8803L138.086 77.1803Z" fill="white"/>
<path d="M135.714 86.1391L147.216 89.1883L146.467 92.0147L140.42 93.3311L145.021 97.4702L144.272 100.297L132.769 97.2474L133.374 94.9633L141.936 97.2328L137.445 93.1406L137.742 92.0232L143.669 90.6927L135.108 88.4232L135.714 86.1391Z" fill="white"/>
<path d="M133.958 99.194L141.338 102.832L142.173 105.29L139.437 110.841L136.978 111.676L129.598 108.038L128.763 105.579L131.499 100.029L133.958 99.194ZM139.996 104.938L133.104 101.541L130.94 105.932L137.832 109.329L139.996 104.938Z" fill="white"/>
<path d="M125.669 110.436L133.597 116.183L135.523 113.526L137.23 114.763L131.962 122.031L130.255 120.794L132.181 118.137L124.252 112.391L125.669 110.436Z" fill="white"/>
<path d="M123.398 120.44L120.315 123.512L124.13 127.342L127.213 124.27L123.398 120.44ZM122.516 129.142L118.509 125.119L118.514 122.523L122.006 119.043L120.207 117.237L121.917 115.533L130.315 123.964L125.112 129.147L122.516 129.142Z" fill="white"/>
<path d="M114.684 122.566L121.595 132.253L114.841 137.071L113.656 135.411L118.445 131.995L116.825 129.725L112.729 132.647L111.584 131.042L115.68 128.12L113.903 125.628L108.976 129.143L107.792 127.482L114.684 122.566Z" fill="white"/>
<path d="M104.801 129.015L109.225 137.751L112.152 136.268L113.105 138.149L105.097 142.205L104.145 140.324L107.072 138.842L102.648 130.106L104.801 129.015Z" fill="white"/>
<path d="M94.6451 140.974L99.0568 139.589L97.4375 134.431L93.0258 135.816L94.6451 140.974ZM92.3826 141.827L90.6819 136.41L91.8836 134.108L99.1499 131.827L102.714 143.18L100.411 143.903L99.6474 141.471L94.6843 143.029L92.3826 141.827Z" fill="white"/>
<path d="M85.1359 135.552L85.753 147.436L76.4835 147.918L75.8664 136.034L78.2772 135.908L78.785 145.687L83.233 145.456L82.7252 135.677L85.1359 135.552Z" fill="white"/>
<path d="M73.7817 137.849L72.6583 146L70.5888 147.568L64.4588 146.723L62.8907 144.653L64.0141 136.502L66.0835 134.934L72.2136 135.779L73.7817 137.849ZM70.2367 145.391L71.2858 137.779L66.4357 137.111L65.3866 144.723L70.2367 145.391Z" fill="white"/>
<path d="M64.601 132.477L63.1427 136.722L62.0655 136.352L56.6812 144.856L49.8482 142.508L53.03 133.247L52.0492 132.91L53.5075 128.666L55.4047 129.318L54.6313 131.569L61.9305 134.077L62.7039 131.826L64.601 132.477ZM59.8106 135.433L55.3572 133.903L52.772 141.427L55.5856 142.394L59.8106 135.433Z" fill="white"/>
<path d="M47.7172 133.251L43.9264 131.113L41.271 135.822L45.0619 137.96L47.7172 133.251ZM39.1015 134.755L41.8904 129.809L44.3915 129.112L48.6858 131.533L49.9383 129.312L52.0411 130.498L46.196 140.863L39.799 137.256L39.1015 134.755Z" fill="white"/>
<path d="M42.2299 127L36.9747 133.331L34.3894 133.571L29.6279 129.619L29.3878 127.034L34.643 120.703L37.2284 120.462L41.9898 124.415L42.2299 127ZM35.2387 131.537L40.1464 125.624L36.3791 122.497L31.4714 128.41L35.2387 131.537Z" fill="white"/>
<path d="M35.0353 118.495L25.9606 126.193L20.33 119.555L21.8338 118.28L25.9028 123.076L27.9252 121.361L24.472 117.29L24.6765 114.798L27.5286 112.379L30.0205 112.583L35.0353 118.495ZM31.9699 117.929L28.9786 114.403L26.3859 116.603L29.3771 120.129L31.9699 117.929Z" fill="white"/>
<path d="M28.6378 110.906L18.358 116.901L17.142 114.816L21.1951 112.452L18.8487 108.428L14.7955 110.792L13.5794 108.707L23.8592 102.712L25.0753 104.797L20.7284 107.332L23.0749 111.356L27.4218 108.821L28.6378 110.906Z" fill="white"/>
<path d="M23.2356 101.323L12.0856 105.481L9.18696 97.7074L11.0984 96.9946L13.1536 102.506L15.7658 101.532L14.0077 96.8169L15.8554 96.1279L17.6136 100.843L20.4807 99.7736L18.3661 94.103L20.2776 93.3902L23.2356 101.323Z" fill="white"/>
<path d="M20.129 92.79L8.47012 95.1734L6.80854 87.0455L8.80721 86.6369L9.98529 92.3997L12.7168 91.8413L11.709 86.9113L13.641 86.5163L14.6488 91.4464L17.6468 90.8335L16.4347 84.9041L18.4334 84.4955L20.129 92.79Z" fill="white"/>
<path d="M16.1791 74.5047L7.99752 73.6323L6.36653 71.612L7.0118 65.5603L9.19244 65.7928L8.61566 71.2021L16.0873 71.9988L16.6821 66.4204L18.8628 66.6529L18.1995 72.8737L16.1791 74.5047Z" fill="white"/>
<path d="M18.8451 65.6863L7.45296 62.2468L8.29809 59.4476L14.3867 58.338L9.9294 54.0445L10.7745 51.2453L22.1666 54.6848L21.4836 56.9469L13.0047 54.3869L17.3529 58.6298L17.0188 59.7365L11.0491 60.8642L19.528 63.4241L18.8451 65.6863Z" fill="white"/>
<path d="M21.0824 52.5855L13.8419 48.677L13.0985 46.1892L16.0379 40.744L18.5257 40.0005L25.7661 43.909L26.5096 46.3968L23.5701 51.842L21.0824 52.5855ZM15.2603 46.6221L22.022 50.2722L24.3477 45.9639L17.586 42.3138L15.2603 46.6221Z" fill="white"/>
<path d="M29.7297 41.6966L22.0161 35.6647L19.995 38.2493L18.3344 36.9508L23.8637 29.88L25.5243 31.1785L23.5031 33.7631L31.2167 39.795L29.7297 41.6966Z" fill="white"/>
<path d="M32.2829 31.8257L35.4757 28.8683L31.802 24.9023L28.6093 27.8597L32.2829 31.8257ZM33.4806 23.1621L37.3391 27.3277L37.2398 29.9223L33.623 33.2724L35.3558 35.1432L33.5848 36.7836L25.4982 28.0534L30.886 23.0628L33.4806 23.1621Z" fill="white"/>
<path d="M40.9716 30.0572L34.3834 20.1473L41.2921 15.5544L42.4215 17.2533L37.5231 20.5097L39.0666 22.8315L43.2571 20.0456L44.3489 21.6878L40.1584 24.4737L41.8525 27.0219L46.8924 23.6714L48.0218 25.3702L40.9716 30.0572Z" fill="white"/>
<path d="M51.1394 23.876L47.0424 14.9823L44.0624 16.3551L43.1804 14.4404L51.333 10.6849L52.2149 12.5995L49.2349 13.9723L53.3319 22.866L51.1394 23.876Z" fill="white"/>
<path d="M61.5495 12.3044L57.0932 13.5385L58.5359 18.7484L62.9922 17.5144L61.5495 12.3044ZM63.8396 11.5291L65.3549 17.0012L64.0755 19.2606L56.7357 21.2931L53.5599 9.82469L55.8864 9.18045L56.5669 11.638L61.5802 10.2497L63.8396 11.5291Z" fill="white"/>
<path d="M70.7754 17.9879L70.5713 6.08964L79.8519 5.9304L80.0561 17.8287L77.6424 17.8701L77.4744 8.0795L73.0211 8.15591L73.1891 17.9465L70.7754 17.9879Z" fill="white"/>
<path d="M82.4092 16.0533L83.813 7.94597L85.9353 6.45014L92.0326 7.50593L93.5284 9.62826L92.1246 17.7356L90.0022 19.2314L83.905 18.1757L82.4092 16.0533ZM86.2122 8.63745L84.9012 16.2088L89.7254 17.0441L91.0364 9.4728L86.2122 8.63745Z" fill="white"/>
<path d="M91.3722 21.7075L92.9731 17.5147L94.0372 17.921L99.7059 9.60402L106.456 12.1813L102.963 21.3291L103.931 21.699L102.33 25.8918L100.456 25.1762L101.305 22.9528L94.0952 20.1996L93.2462 22.423L91.3722 21.7075ZM96.2597 18.9153L100.659 20.595L103.497 13.1625L100.718 12.1012L96.2597 18.9153Z" fill="white"/>
<path d="M108.331 21.5075L112.041 23.7832L114.868 19.1752L111.158 16.8995L108.331 21.5075ZM116.997 20.3216L114.028 25.1614L111.503 25.7664L107.3 23.1884L105.967 25.362L103.909 24.0997L110.132 13.9563L116.392 17.7965L116.997 20.3216Z" fill="white"/>
<path d="M113.516 27.859L118.976 21.7033L121.568 21.5479L126.197 25.6539L126.352 28.2457L120.893 34.4015L118.301 34.5568L113.671 30.4508L113.516 27.859ZM120.652 23.5537L115.554 29.3024L119.216 32.5511L124.315 26.8023L120.652 23.5537Z" fill="white"/>
<path d="M120.63 36.783L129.979 29.4205L135.364 36.2585L133.815 37.4786L129.924 32.5371L127.84 34.1779L131.143 38.3715L130.848 40.8544L127.909 43.1683L125.426 42.8732L120.63 36.783ZM123.673 37.4595L126.534 41.0922L129.205 38.9886L126.344 35.3559L123.673 37.4595Z" fill="white"/>
<path d="M126.753 44.5747L137.246 38.9634L138.385 41.0922L134.247 43.3046L136.444 47.4123L140.581 45.1998L141.719 47.3286L131.226 52.9399L130.087 50.8111L134.525 48.4384L132.328 44.3307L127.891 46.7035L126.753 44.5747Z" fill="white"/>
<path d="M131.746 54.1778L143.03 50.3997L145.664 58.2665L143.729 58.9142L141.862 53.3365L139.218 54.2217L140.816 58.9933L138.946 59.6194L137.348 54.8477L134.446 55.8192L136.368 61.5581L134.433 62.2058L131.746 54.1778Z" fill="white"/>
<path d="M134.596 62.9071L146.33 60.9263L147.711 69.1066L145.7 69.4461L144.721 63.6462L141.972 64.1103L142.809 69.0721L140.865 69.4003L140.027 64.4385L137.01 64.9479L138.017 70.9154L136.006 71.255L134.596 62.9071Z" fill="white"/>
</svg>
